<svg width="28" height="32" viewBox="0 0 28 32" fill="none" xmlns="http://www.w3.org/2000/svg">
<g clip-path="url(#clip0_142:1505)">
<path d="M27.4286 27V5C27.4286 3.34375 26.1122 2 24.4898 2H2.93878C1.31633 2 0 3.34375 0 5V27C0 28.6562 1.31633 30 2.93878 30H24.4898C26.1122 30 27.4286 28.6562 27.4286 27ZM2.93878 28C2.4 28 1.95918 27.55 1.95918 27V5C1.95918 4.45 2.4 4 2.93878 4H24.4898C25.0286 4 25.4694 4.45 25.4694 5V27C25.4694 27.55 25.0286 28 24.4898 28H2.93878ZM8.84082 15.4687L15.8878 8.28125C16.1755 7.9875 16.6408 7.9875 16.9286 8.28125L17.3633 8.725C17.651 9.01875 17.651 9.49375 17.3633 9.7875L11.2653 16L17.3571 22.2187C17.6449 22.5125 17.6449 22.9875 17.3571 23.2812L16.9224 23.725C16.6347 24.0187 16.1694 24.0187 15.8816 23.725L8.83469 16.5375C8.55918 16.2375 8.55918 15.7625 8.84082 15.4687V15.4687Z" fill="#D6D6D6"/>
</g>
<defs>
<clipPath id="clip0_142:1505">
<rect width="27.4286" height="32" fill="white"/>
</clipPath>
</defs>
</svg>
