<svg width="28" height="32" viewBox="0 0 28 32" fill="none" xmlns="http://www.w3.org/2000/svg">
<g clip-path="url(#clip0_142:1507)">
<path d="M-0.000833472 5L-0.000835395 27C-0.00083554 28.6562 1.31549 30 2.93794 30L24.489 30C26.1114 30 27.4277 28.6563 27.4277 27L27.4277 5C27.4277 3.34375 26.1114 2 24.489 2L2.93794 2C1.31549 2 -0.000833327 3.34375 -0.000833472 5ZM24.489 4C25.0277 4 25.4686 4.45 25.4686 5L25.4686 27C25.4686 27.55 25.0277 28 24.489 28L2.93794 28C2.39916 28 1.95835 27.55 1.95835 27L1.95835 5C1.95835 4.45 2.39917 4 2.93794 4L24.489 4ZM18.5869 16.5313L11.54 23.7187C11.2522 24.0125 10.7869 24.0125 10.4992 23.7187L10.0645 23.275C9.77672 22.9812 9.77672 22.5062 10.0645 22.2125L16.1624 16L10.0706 9.78125C9.78284 9.4875 9.78284 9.0125 10.0706 8.71875L10.5053 8.275C10.793 7.98125 11.2583 7.98125 11.5461 8.275L18.593 15.4625C18.8686 15.7625 18.8686 16.2375 18.5869 16.5313V16.5313Z" fill="#583BB7"/>
</g>
<defs>
<clipPath id="clip0_142:1507">
<rect width="27.4286" height="32" fill="white" transform="translate(27.4277 32) rotate(-180)"/>
</clipPath>
</defs>
</svg>
