<svg width="20" height="20" viewBox="0 0 20 20" fill="none" xmlns="http://www.w3.org/2000/svg">
<path fill-rule="evenodd" clip-rule="evenodd" d="M18 13.444C18 10.8292 16.5967 7.61655 15.6518 5.75004L14.8106 4.21469C14.8894 4.8046 14.8583 5.40554 14.7189 5.98228C14.5361 6.48834 14.2562 6.94705 13.8977 7.3284C13.8568 5.99726 13.4925 4.70105 12.8412 3.56959C12.7176 3.37175 12.4027 2.83287 12.0518 2.35249C11.3598 1.4011 10.5043 0.60239 9.53225 0C9.87248 0.758996 10.0767 1.5805 10.1342 2.4213C10.1063 3.41046 9.8153 4.00396 8.43989 5.93927C7.06448 7.87459 7.40335 10.7604 7.40335 10.7604C7.29348 10.3572 7.14379 9.96788 6.95684 9.59917C6.59804 8.84655 5.13492 7.96061 5.04323 7.909C5.08309 8.01651 5.7409 9.7841 4.84389 10.984C3.70369 12.5194 2.79074 13.6633 3.0419 15.9599C3.36084 18.8801 6.44256 19.6972 7.85784 19.9166H7.86182C8.2884 19.9854 8.55949 19.9983 8.55949 19.9983C7.6278 19.6542 7.09677 18.3898 7.02342 17.6944C6.96643 17.2982 6.98966 16.8935 7.09151 16.5079C7.19337 16.1224 7.37143 15.7653 7.61345 15.461C7.80322 15.1806 8.50448 14.4289 8.74049 14.1708C9.35934 13.6008 9.79041 12.83 9.96919 11.9736C10.0655 11.3748 10.0828 10.7644 10.0206 10.1604C10.6767 10.6094 11.2326 11.2096 11.6484 11.9177C11.9726 12.4726 12.1526 13.1113 12.1694 13.767C12.346 13.5783 12.4838 13.3518 12.5741 13.1021C12.6427 12.8161 12.6575 12.5183 12.6176 12.226C12.6176 12.226 14.2346 14.6344 14.1891 16.7745C14.1321 19.4564 12.5944 19.997 12.592 20C12.6084 19.9957 18 19.2706 18 13.444Z" fill="white"/>
</svg>
