<svg width="20" height="20" viewBox="0 0 20 20" fill="none" xmlns="http://www.w3.org/2000/svg">
<path d="M15.675 16H3.325C3.06375 16 2.85 16.225 2.85 16.5V17.5C2.85 17.775 3.06375 18 3.325 18H15.675C15.9362 18 16.15 17.775 16.15 17.5V16.5C16.15 16.225 15.9362 16 15.675 16ZM17.575 6C16.7883 6 16.15 6.67188 16.15 7.5C16.15 7.72188 16.1975 7.92812 16.2806 8.11875L14.1312 9.475C13.6741 9.7625 13.0833 9.6 12.8191 9.1125L10.3995 4.65625C10.7172 4.38125 10.925 3.96875 10.925 3.5C10.925 2.67188 10.2867 2 9.5 2C8.71328 2 8.075 2.67188 8.075 3.5C8.075 3.96875 8.28281 4.38125 8.60047 4.65625L6.18094 9.1125C5.91672 9.6 5.32297 9.7625 4.86875 9.475L2.72234 8.11875C2.8025 7.93125 2.85297 7.72188 2.85297 7.5C2.85297 6.67188 2.21469 6 1.42797 6C0.64125 6 0 6.67188 0 7.5C0 8.32812 0.638281 9 1.425 9C1.50219 9 1.57938 8.9875 1.65359 8.975L3.8 15H15.2L17.3464 8.975C17.4206 8.9875 17.4978 9 17.575 9C18.3617 9 19 8.32812 19 7.5C19 6.67188 18.3617 6 17.575 6Z" fill="white"/>
</svg>
