<svg width="22" height="22" viewBox="0 0 22 22" fill="none" xmlns="http://www.w3.org/2000/svg">
<g clip-path="url(#clip0_142:4582)">
<path d="M21.8496 20.6938L16.3066 15.1508C16.2078 15.052 16.0789 15.0004 15.9414 15.0004H15.4988C16.9727 13.4063 17.875 11.2793 17.875 8.9375C17.875 4.00039 13.8746 0 8.9375 0C4.00039 0 0 4.00039 0 8.9375C0 13.8746 4.00039 17.875 8.9375 17.875C11.2793 17.875 13.4063 16.9727 15.0004 15.5031V15.9414C15.0004 16.0789 15.0563 16.2078 15.1508 16.3066L20.6938 21.8496C20.8957 22.0516 21.2223 22.0516 21.4242 21.8496L21.8496 21.4242C22.0516 21.2223 22.0516 20.8957 21.8496 20.6938ZM8.9375 16.5C4.75664 16.5 1.375 13.1184 1.375 8.9375C1.375 4.75664 4.75664 1.375 8.9375 1.375C13.1184 1.375 16.5 4.75664 16.5 8.9375C16.5 13.1184 13.1184 16.5 8.9375 16.5Z" fill="black"/>
</g>
<defs>
<clipPath id="clip0_142:4582">
<rect width="22" height="22" fill="white"/>
</clipPath>
</defs>
</svg>
