<svg width="20" height="20" viewBox="0 0 20 20" fill="none" xmlns="http://www.w3.org/2000/svg">
<path d="M18.927 1.42698C18.6535 1.15359 18.2826 1 17.8959 1C17.5092 1 17.1384 1.15359 16.8649 1.42698L10.177 8.1149L3.48906 1.42698C3.21559 1.15359 2.84472 1 2.45802 1C2.07132 1 1.70046 1.15359 1.42698 1.42698C1.15359 1.70046 1 2.07132 1 2.45802C1 2.84472 1.15359 3.21559 1.42698 3.48906L8.1149 10.177L1.42698 16.8649C1.15359 17.1384 1 17.5092 1 17.8959C1 18.2826 1.15359 18.6535 1.42698 18.927C1.70046 19.2004 2.07132 19.354 2.45802 19.354C2.84472 19.354 3.21559 19.2004 3.48906 18.927L10.177 12.2391L16.8649 18.927C17.1384 19.2004 17.5092 19.354 17.8959 19.354C18.2826 19.354 18.6535 19.2004 18.927 18.927C19.2004 18.6535 19.354 18.2826 19.354 17.8959C19.354 17.5092 19.2004 17.1384 18.927 16.8649L12.2391 10.177L18.927 3.48906C19.2004 3.21559 19.354 2.84472 19.354 2.45802C19.354 2.07132 19.2004 1.70046 18.927 1.42698V1.42698Z" fill="white"/>
</svg>
