<svg width="18" height="15" viewBox="0 0 18 15" fill="none" xmlns="http://www.w3.org/2000/svg">
<g clip-path="url(#clip0_141:2069)">
<path d="M17.6533 5.75232L12.1534 0.362166C11.3818 -0.394162 10 0.109627 10 1.17222V3.75486C4.82963 3.81302 0 4.6904 0 9.70271C0 12.4853 1.745 14.104 2.78531 14.8171C3.54259 15.3363 4.59847 14.6708 4.33781 13.8061C3.15428 9.86962 5.17422 9.43265 10 9.37957V11.953C10 13.0147 11.3809 13.5202 12.1534 12.7631L17.6534 7.37244C18.1156 6.91922 18.1156 6.20554 17.6533 5.75232ZM16.9306 6.72439L11.4306 12.115C11.2765 12.2662 11 12.1657 11 11.953V8.43738C5.64388 8.43738 1.77147 8.72177 3.37562 14.0536C2.25 13.2819 1 11.8824 1 9.70271C1 5.01492 6.09019 4.68738 11 4.68738V1.17176C11 0.959002 11.2766 0.858572 11.4306 1.00974L16.9306 6.40037C16.9753 6.44391 17.0002 6.50197 17.0002 6.56238C17.0002 6.62279 16.9753 6.68085 16.9306 6.72439Z" fill="white"/>
</g>
<defs>
<clipPath id="clip0_141:2069">
<rect width="18" height="15" fill="white"/>
</clipPath>
</defs>
</svg>
