<svg width="20" height="20" viewBox="0 0 20 20" fill="none" xmlns="http://www.w3.org/2000/svg">
<path d="M1 9.86352V2.6875C1 1.75551 1.75551 1 2.6875 1H9.86352C10.3111 1 10.7403 1.17779 11.0568 1.49426L18.5057 8.94324C19.1647 9.60224 19.1647 10.6707 18.5057 11.3297L11.3297 18.5057C10.6707 19.1647 9.60224 19.1647 8.94324 18.5057L1.49426 11.0568C1.17779 10.7403 1 10.3111 1 9.86352H1ZM4.9375 3.25C4.00551 3.25 3.25 4.00551 3.25 4.9375C3.25 5.86949 4.00551 6.625 4.9375 6.625C5.86949 6.625 6.625 5.86949 6.625 4.9375C6.625 4.00551 5.86949 3.25 4.9375 3.25Z" fill="white"/>
</svg>
