<svg width="20" height="20" viewBox="0 0 20 20" fill="none" xmlns="http://www.w3.org/2000/svg">
<path d="M18.1 1.9H15.4V1H4.6V1.9H1.9C1.36 1.9 1 2.26 1 2.8V4.96C1 7.03 2.53 8.74 4.6 9.01V9.1C4.6 11.71 6.4 13.87 8.83 14.41L8.2 16.3H6.13C5.77 16.3 5.41 16.57 5.32 16.93L4.6 19H15.4L14.68 16.93C14.59 16.57 14.23 16.3 13.87 16.3H11.8L11.17 14.41C13.6 13.87 15.4 11.71 15.4 9.1V9.01C17.47 8.74 19 7.03 19 4.96V2.8C19 2.26 18.64 1.9 18.1 1.9ZM4.6 7.21C3.61 6.94 2.8 6.04 2.8 4.96V3.7H4.6V7.21ZM11.8 10L10 9.01L8.2 10L8.65 8.2L7.3 6.4H9.19L10 4.6L10.81 6.4H12.7L11.35 8.2L11.8 10ZM17.2 4.96C17.2 6.04 16.39 7.03 15.4 7.21V3.7H17.2V4.96Z" fill="white"/>
</svg>
