<svg width="11" height="14" viewBox="0 0 11 14" fill="none" xmlns="http://www.w3.org/2000/svg">
<path d="M9.625 0H1.375C0.615599 0 0 0.587617 0 1.3125V14L5.5 10.9375L11 14V1.3125C11 0.587617 10.3844 0 9.625 0ZM9.625 11.7149L5.5 9.41801L1.375 11.7149V1.47656C1.375 1.43305 1.39311 1.39132 1.42534 1.36055C1.45757 1.32979 1.50129 1.3125 1.54688 1.3125H9.45312C9.54806 1.3125 9.625 1.38586 9.625 1.47645V11.7149Z" fill="#929292"/>
<path d="M9.625 0H1.375C0.615599 0 0 0.587617 0 1.3125V14L5.5 10.9375L11 14V1.3125C11 0.587617 10.3844 0 9.625 0Z" fill="#969696"/>
</svg>
