<svg width="118" height="32" viewBox="0 0 118 32" fill="none" xmlns="http://www.w3.org/2000/svg">
<path d="M25.4489 25H29.0795V11.9091H25.4489V25ZM27.2727 10.2216C28.3551 10.2216 29.2415 9.39489 29.2415 8.38068C29.2415 7.375 28.3551 6.54829 27.2727 6.54829C26.1989 6.54829 25.3125 7.375 25.3125 8.38068C25.3125 9.39489 26.1989 10.2216 27.2727 10.2216ZM38.951 11.9091H36.4879V8.77273H32.8572V11.9091H31.0675V14.6364H32.8572V21.4545C32.8402 24.0199 34.5874 25.2898 37.2209 25.179C38.1584 25.1449 38.8232 24.9574 39.1896 24.8381L38.6186 22.1364C38.4396 22.1705 38.0561 22.2557 37.7152 22.2557C36.9908 22.2557 36.4879 21.983 36.4879 20.9773V14.6364H38.951V11.9091ZM47.0902 25.2557C50.576 25.2557 52.7663 23.2102 52.9368 20.2017H49.5107C49.2976 21.5994 48.3771 22.3835 47.1328 22.3835C45.4368 22.3835 44.3374 20.9602 44.3374 18.4545C44.3374 15.983 45.4453 14.5682 47.1328 14.5682C48.4624 14.5682 49.3146 15.446 49.5107 16.75H52.9368C52.7834 13.7244 50.4908 11.7386 47.0732 11.7386C43.1016 11.7386 40.647 14.4915 40.647 18.5057C40.647 22.4858 43.0589 25.2557 47.0902 25.2557ZM61.1761 25.2557C65.1477 25.2557 67.6193 22.5369 67.6193 18.5057C67.6193 14.4489 65.1477 11.7386 61.1761 11.7386C57.2045 11.7386 54.733 14.4489 54.733 18.5057C54.733 22.5369 57.2045 25.2557 61.1761 25.2557ZM61.1932 22.4432C59.3608 22.4432 58.4233 20.7642 58.4233 18.4801C58.4233 16.196 59.3608 14.5085 61.1932 14.5085C62.9915 14.5085 63.929 16.196 63.929 18.4801C63.929 20.7642 62.9915 22.4432 61.1932 22.4432ZM69.9801 25H73.6108V11.9091H69.9801V25ZM71.804 10.2216C72.8864 10.2216 73.7727 9.39489 73.7727 8.38068C73.7727 7.375 72.8864 6.54829 71.804 6.54829C70.7301 6.54829 69.8438 7.375 69.8438 8.38068C69.8438 9.39489 70.7301 10.2216 71.804 10.2216ZM80.1499 17.4318C80.1584 15.7443 81.1641 14.7557 82.63 14.7557C84.0874 14.7557 84.9652 15.7102 84.9567 17.3125V25H88.5874V16.6648C88.5874 13.6136 86.7976 11.7386 84.0703 11.7386C82.1271 11.7386 80.7209 12.6932 80.1328 14.2188H79.9794V11.9091H76.5192V25H80.1499V17.4318ZM100.794 25.2109C104.556 25.2109 106.771 22.0117 106.771 18.4844C106.771 15.5781 105.013 13.457 102.33 13.457C98.5678 13.457 96.353 16.6445 96.353 20.1719C96.353 23.0781 98.1108 25.2109 100.794 25.2109ZM100.818 24.6719C99.435 24.6719 98.6733 23.4531 98.6967 21.0156C98.7202 17.7812 99.9272 13.9844 102.306 13.9844C103.689 13.9844 104.451 15.2031 104.427 17.6523C104.404 20.875 103.197 24.6719 100.818 24.6719ZM110.908 12.3672L110.626 13.8789L109.126 14.207L109.044 14.5703H110.497L108.505 26.0898C107.978 29.0898 107.228 29.8984 106.021 29.8984C105.88 29.8984 105.74 29.875 105.611 29.8281C106.138 29.7695 106.56 29.3242 106.56 28.7266C106.56 28.0938 106.068 27.6133 105.458 27.6133C104.849 27.6133 104.345 28.0703 104.345 28.7266C104.345 29.6758 105.13 30.4844 106.29 30.4844C108.412 30.4844 110.251 28.8086 111.142 23.7695L112.771 14.4531L115.384 14.5703L115.56 13.8086L112.853 13.9492L113.251 11.7578C113.72 9.09766 114.482 8.17188 115.572 8.17188C115.747 8.17188 115.9 8.19531 116.052 8.24219C115.572 8.35938 115.208 8.79297 115.208 9.33203C115.208 9.97656 115.712 10.4688 116.333 10.4688C116.966 10.4688 117.482 9.98828 117.482 9.33203C117.482 8.34766 116.662 7.57422 115.173 7.57422C113.193 7.57422 111.529 8.98047 110.908 12.3672Z" fill="white"/>
<g clip-path="url(#clip0_142:1528)">
<path d="M11.6546 3.63001C11.6546 2.42829 11.6546 1.23496 11.6546 0.04958C11.8299 -0.00439854 14.2356 -0.0157964 14.514 0.0343111C14.5223 0.433236 14.5166 0.839042 14.5177 1.24463C14.5188 1.64592 14.5179 2.047 14.5179 2.44829C14.5179 2.85539 14.5179 3.2627 14.5179 3.68528C14.6289 3.70506 14.7192 3.73044 14.8109 3.73625C15.6548 3.79044 16.4873 3.9156 17.3044 4.13044C17.9187 4.29195 18.5107 4.51087 19.0554 4.83797C19.9778 5.39152 20.5643 6.19453 20.8333 7.21689C21.0854 8.17431 21.1167 9.14248 20.8899 10.1089C20.633 11.204 20.0084 12.0601 19.0836 12.7107C18.4133 13.1823 17.6686 13.5012 16.8845 13.7386C16.8066 13.7623 16.7319 13.7958 16.6558 13.8248C16.6588 13.8388 16.6619 13.853 16.665 13.867C16.8969 13.9171 17.13 13.9633 17.3607 14.018C18.1934 14.2154 18.9904 14.4999 19.7145 14.9601C20.8278 15.6674 21.5309 16.6569 21.8213 17.927C22.0651 18.9924 22.0542 20.0614 21.8034 21.1214C21.4283 22.7064 20.4577 23.8057 18.9289 24.4279C18.1861 24.73 17.4101 24.9139 16.6186 25.0416C15.9796 25.1446 15.3375 25.2167 14.6912 25.2556C14.5472 25.2642 14.5286 25.2849 14.5192 25.4214C14.5153 25.4784 14.5175 25.536 14.5175 25.5932C14.5175 26.6322 14.5175 27.6709 14.5175 28.7098C14.5175 28.7943 14.5175 28.8788 14.5175 28.9556C14.3275 29.0111 11.9036 29.0182 11.6618 28.9651C11.6618 27.7717 11.6618 26.5719 11.6618 25.3803C11.4714 25.3268 8.94115 25.3201 8.69473 25.3707C8.69473 26.5642 8.69473 27.7638 8.69473 28.955C8.50062 29.0115 6.07979 29.0184 5.83359 28.9642C5.83359 27.7722 5.83359 26.5728 5.83359 25.3442C5.42151 25.3304 5.0381 25.339 4.65512 25.3375C4.26865 25.336 3.88239 25.3371 3.49591 25.3371C3.11688 25.3371 2.73762 25.3371 2.35859 25.3371C1.97211 25.3371 1.58586 25.3371 1.19938 25.3371C0.814438 25.3371 0.429276 25.3371 0.0231043 25.3371C0.0134753 25.2431 -0.000749492 25.1679 -0.000749492 25.0926C-0.00250023 24.3904 -0.0018437 23.6883 -0.00162486 22.9864C-0.00162486 22.9433 -9.29647e-05 22.9003 0.0023143 22.8575C0.00625346 22.7821 0.0447697 22.7375 0.123772 22.7339C0.181984 22.7311 0.240415 22.7304 0.298627 22.7294C0.823192 22.7201 1.34841 22.724 1.87188 22.6965C2.13056 22.6829 2.38967 22.6249 2.64243 22.5631C2.91598 22.4965 3.09215 22.3156 3.18166 22.0487C3.2832 21.7461 3.31515 21.4339 3.33703 21.1195C3.34491 21.0053 3.34207 20.8902 3.34207 20.7756C3.34229 16.5844 3.34426 12.3932 3.33857 8.20227C3.33813 7.86764 3.28779 7.53259 3.25234 7.19861C3.24271 7.10765 3.20442 7.01926 3.17706 6.93023C3.09981 6.67732 2.92955 6.50528 2.67525 6.43453C2.45269 6.37259 2.22291 6.31281 1.99356 6.30055C1.43376 6.27066 0.872432 6.26872 0.311757 6.25625C0.225096 6.25431 0.138215 6.25603 0.0277 6.25603C0.0165391 6.17453 -0.000311807 6.107 -0.00053065 6.03947C-0.00250023 5.31582 -0.00228139 4.59238 -0.000749492 3.86872C-0.00053065 3.80678 0.0132564 3.74506 0.0231043 3.66162C1.95264 3.66162 3.86707 3.66162 5.80558 3.66162C5.81542 3.55109 5.83009 3.46184 5.83009 3.37238C5.83162 2.34786 5.83118 1.32334 5.83118 0.298827C5.83118 0.213666 5.83118 0.128505 5.83118 0.04958C5.99794 -0.00353832 8.38573 -0.0177319 8.68664 0.0321606C8.69845 0.423774 8.69058 0.822268 8.69189 1.22033C8.69342 1.62162 8.69211 2.0227 8.69211 2.42399C8.69211 2.82334 8.69211 3.22291 8.69211 3.6141C8.87703 3.66528 11.3447 3.67797 11.6546 3.63001ZM8.70852 15.4096C8.70852 17.8601 8.70852 20.2904 8.70852 22.7468C8.80219 22.7468 8.88009 22.7468 8.95822 22.7468C9.43902 22.7468 9.92003 22.7442 10.4008 22.7474C11.2672 22.7532 12.1325 22.7479 12.9924 22.6175C13.5038 22.5399 14.0058 22.4319 14.4864 22.2393C15.3386 21.8975 15.8883 21.2857 16.1527 20.4251C16.3822 19.6782 16.4037 18.9132 16.2827 18.1502C16.1017 17.0081 15.471 16.2147 14.3367 15.8328C13.5093 15.5541 12.651 15.4494 11.7865 15.4167C10.8479 15.3812 9.90734 15.3945 8.96763 15.3885C8.88316 15.3881 8.79825 15.4021 8.70852 15.4096ZM8.70765 6.27453C8.70765 8.44549 8.70765 10.596 8.70765 12.7575C8.76126 12.7651 8.80306 12.7767 8.84464 12.776C9.95045 12.7562 11.0582 12.8328 12.1612 12.6894C12.682 12.6216 13.1926 12.5212 13.683 12.3339C14.4785 12.03 14.9908 11.4745 15.2101 10.6618C15.404 9.94334 15.4198 9.21775 15.2701 8.49238C15.1261 7.79517 14.7842 7.21797 14.1225 6.87732C13.8666 6.74571 13.5924 6.63904 13.3154 6.55818C12.521 6.32635 11.699 6.27904 10.877 6.25904C10.2363 6.24356 9.59461 6.25517 8.95341 6.25646C8.87572 6.25646 8.79825 6.26743 8.70765 6.27453Z" fill="white"/>
</g>
<defs>
<clipPath id="clip0_142:1528">
<rect width="22" height="29" fill="white"/>
</clipPath>
</defs>
</svg>
